<?xml version="1.0" encoding="UTF-8" standalone="no"?>
<!-- Created with Inkscape (http://www.inkscape.org/) -->

<svg
   xmlns:dc="http://purl.org/dc/elements/1.1/"
   xmlns:cc="http://creativecommons.org/ns#"
   xmlns:rdf="http://www.w3.org/1999/02/22-rdf-syntax-ns#"
   xmlns:svg="http://www.w3.org/2000/svg"
   xmlns="http://www.w3.org/2000/svg"
   xmlns:sodipodi="http://sodipodi.sourceforge.net/DTD/sodipodi-0.dtd"
   xmlns:inkscape="http://www.inkscape.org/namespaces/inkscape"
   width="142"
   height="60"
   viewBox="0 0 37.570832 15.875"
   version="1.1"
   id="svg8"
   inkscape:version="0.92.4 (5da689c313, 2019-01-14)"
   sodipodi:docname="otelius-travels.svg">
  <defs
     id="defs2" />
  <sodipodi:namedview
     id="base"
     pagecolor="#ffffff"
     bordercolor="#666666"
     borderopacity="1.0"
     inkscape:pageopacity="0.0"
     inkscape:pageshadow="2"
     inkscape:zoom="3.959798"
     inkscape:cx="15.029212"
     inkscape:cy="25.503356"
     inkscape:document-units="mm"
     inkscape:current-layer="layer1"
     showgrid="false"
     showborder="true"
     units="px"
     inkscape:window-width="1920"
     inkscape:window-height="1017"
     inkscape:window-x="1912"
     inkscape:window-y="-8"
     inkscape:window-maximized="1" />
  <metadata
     id="metadata5">
    <rdf:RDF>
      <cc:Work
         rdf:about="">
        <dc:format>image/svg+xml</dc:format>
        <dc:type
           rdf:resource="http://purl.org/dc/dcmitype/StillImage" />
        <dc:title></dc:title>
      </cc:Work>
    </rdf:RDF>
  </metadata>
  <g
     inkscape:label="Layer 1"
     inkscape:groupmode="layer"
     id="layer1"
     transform="translate(0,-281.12498)">
    <path
       style="font-style:normal;font-weight:normal;font-size:10.58333302px;line-height:0.89999998;font-family:sans-serif;text-align:center;letter-spacing:0px;word-spacing:0px;text-anchor:middle;fill:#ffffff;fill-opacity:1;stroke:none;stroke-width:0.23461041"
       d="m 20.111804,281.18317 v 7.20149 h 0.852659 v -7.20149 z m -13.7066575,0.16691 c -0.465799,0 -0.896712,0.0804 -1.292944,0.24081 -0.393206,0.16043 -0.722916,0.39165 -0.989087,0.694 -0.278268,0.31779 -0.489918,0.70035 -0.635103,1.14771 -0.145182,0.44428 -0.217559,0.9474 -0.217559,1.50892 0,0.57078 0.07238,1.07808 0.217559,1.52237 0.148209,0.44428 0.358751,0.81901 0.63097,1.12446 0.272219,0.30544 0.601411,0.53874 0.988568,0.69916 0.390181,0.16044 0.822725,0.2403 1.297596,0.2403 0.486971,0 0.919512,-0.0788 1.297596,-0.23616 0.381106,-0.15735 0.710817,-0.39169 0.989087,-0.7033 0.269195,-0.29928 0.47811,-0.67244 0.626319,-1.11981 0.15123,-0.45046 0.226859,-0.95932 0.226859,-1.52702 0,-0.56769 -0.074,-1.07551 -0.22221,-1.52287 -0.145183,-0.44736 -0.355725,-0.82523 -0.630968,-1.13376 -0.269195,-0.29927 -0.597281,-0.52892 -0.984435,-0.68935 -0.384133,-0.16352 -0.818301,-0.24546 -1.302248,-0.24546 z m 16.2108965,0.0971 v 0.90225 h 0.961699 v -0.90225 z m -11.696444,0.28215 v 1.48566 h -0.576191 v 0.73121 h 0.576191 v 2.74914 c 0,0.62631 0.134917,1.08142 0.404109,1.36527 0.269195,0.28384 0.66204,0.42581 1.179259,0.42581 0.148206,0 0.316314,-0.0141 0.503843,-0.0419 0.190553,-0.0278 0.36576,-0.0632 0.526066,-0.10646 v -0.78184 h -0.04547 c -0.06654,0.0278 -0.175363,0.0633 -0.326597,0.10645 -0.151233,0.0401 -0.296497,0.0599 -0.435631,0.0599 -0.238948,0 -0.417406,-0.0277 -0.535368,-0.0832 -0.114941,-0.0586 -0.205277,-0.14995 -0.271817,-0.27337 -0.07259,-0.13267 -0.115025,-0.27462 -0.127125,-0.4258 -0.0121,-0.15427 -0.01809,-0.36721 -0.01809,-0.63871 v -2.35538 h 1.760099 v -0.73121 h -1.760099 v -1.48566 z m -4.5098005,0.41185 c 0.680548,0 1.217549,0.24373 1.610754,0.73121 0.393205,0.48438 0.589626,1.17435 0.589626,2.06908 0,0.904 -0.199673,1.59658 -0.598929,2.07788 -0.396229,0.47822 -0.929976,0.71725 -1.601451,0.71725 -0.671476,0 -1.20685,-0.23903 -1.606103,-0.71725 -0.399256,-0.4813 -0.598932,-1.17388 -0.598932,-2.07788 0,-0.89473 0.195313,-1.5847 0.585494,-2.06908 0.393207,-0.48748 0.932942,-0.73121 1.619541,-0.73121 z m 10.2629375,0.93016 c -0.738018,0 -1.333788,0.24843 -1.787488,0.74516 -0.450672,0.49673 -0.676444,1.16791 -0.676444,2.01328 0,0.85462 0.236122,1.51484 0.707967,1.98072 0.471847,0.46279 1.128016,0.694 1.968873,0.694 0.329687,0 0.644686,-0.0412 0.944128,-0.12454 0.29944,-0.0833 0.592707,-0.18663 0.88005,-0.31005 v -0.94876 h -0.04548 c -0.148206,0.13575 -0.397931,0.27458 -0.748789,0.41651 -0.347837,0.13884 -0.693886,0.20824 -1.038696,0.20824 -0.260123,0 -0.498978,-0.0371 -0.716754,-0.11109 -0.214749,-0.074 -0.400822,-0.18522 -0.558104,-0.33332 -0.163333,-0.15118 -0.292259,-0.34428 -0.386024,-0.57876 -0.09376,-0.23756 -0.14056,-0.51523 -0.14056,-0.833 h 3.734138 v -0.4718 c 0,-0.74973 -0.186071,-1.32801 -0.558104,-1.73527 -0.369009,-0.40726 -0.895141,-0.61132 -1.578716,-0.61132 z m 16.15612,0.0186 c -0.323638,0 -0.616905,0.0433 -0.880049,0.1297 -0.26012,0.0833 -0.475025,0.19761 -0.644406,0.34262 -0.17543,0.14809 -0.307091,0.31614 -0.394806,0.50435 -0.08469,0.1882 -0.127124,0.38861 -0.127124,0.6015 0,0.33938 0.09248,0.62644 0.276984,0.86091 0.187529,0.2314 0.503637,0.40729 0.948264,0.52761 0.160306,0.0432 0.337137,0.0834 0.530714,0.1204 0.196604,0.037 0.355473,0.0694 0.476459,0.0971 0.326663,0.074 0.547553,0.1633 0.662491,0.2682 0.114937,0.10489 0.172082,0.25938 0.172082,0.46301 0,0.26533 -0.105566,0.45949 -0.317294,0.58291 -0.211725,0.1234 -0.504991,0.18499 -0.880049,0.18499 -0.302466,0 -0.618572,-0.06 -0.948261,-0.18034 -0.32969,-0.12342 -0.62946,-0.28835 -0.898655,-0.49506 h -0.04547 v 0.97667 c 0.211725,0.10799 0.473424,0.20819 0.784966,0.30075 0.314563,0.0895 0.659503,0.13384 1.034561,0.13384 0.6624,0 1.184171,-0.15084 1.56528,-0.45319 0.38413,-0.30237 0.576191,-0.68962 0.576191,-1.16167 0,-0.3764 -0.107193,-0.6786 -0.321942,-0.9069 -0.214752,-0.22523 -0.52051,-0.38442 -0.916742,-0.47698 -0.130061,-0.0309 -0.293288,-0.0648 -0.489892,-0.10179 -0.193577,-0.037 -0.368784,-0.0741 -0.526066,-0.1111 -0.284318,-0.0679 -0.489982,-0.15556 -0.617016,-0.26355 -0.130061,-0.10799 -0.195337,-0.26873 -0.195337,-0.48162 -2e-6,-0.24065 0.107191,-0.42123 0.321943,-0.54156 0.214752,-0.12341 0.478075,-0.185 0.789617,-0.185 0.29944,0 0.604681,0.0574 0.916223,0.17157 0.311539,0.11107 0.57649,0.24834 0.794266,0.41185 h 0.04548 v -0.93067 c -0.205679,-0.10799 -0.46464,-0.19881 -0.776181,-0.27285 -0.308515,-0.0771 -0.613757,-0.11575 -0.916223,-0.11575 z m -10.158553,0.12505 v 5.16962 h 0.853178 v -5.16962 z m 2.513542,0 v 3.3553 c 0,0.64173 0.148518,1.12921 0.444934,1.46242 0.296418,0.33012 0.710477,0.49504 1.242819,0.49504 0.317587,0 0.608118,-0.0616 0.871262,-0.185 0.263147,-0.1234 0.538449,-0.30085 0.825792,-0.53226 v 0.57412 h 0.852662 v -5.16962 h -0.852662 v 3.85965 c -0.226849,0.18203 -0.471694,0.33182 -0.734838,0.44906 -0.260123,0.11724 -0.500605,0.1757 -0.721405,0.1757 -0.248021,0 -0.437346,-0.0308 -0.567407,-0.0925 -0.130061,-0.0617 -0.235628,-0.16035 -0.317294,-0.2961 -0.07864,-0.13267 -0.130312,-0.29185 -0.154511,-0.47697 -0.0242,-0.1882 -0.03617,-0.41314 -0.03617,-0.6754 v -2.94344 z m -8.556583,0.57411 c 0.4537,0 0.791025,0.12475 1.011823,0.37466 0.223784,0.2499 0.336965,0.60324 0.340031,1.05986 h -2.903698 c 0.03629,-0.40725 0.189177,-0.74807 0.458369,-1.02265 0.272222,-0.2746 0.636752,-0.41187 1.093475,-0.41187 z m 13.415717,5.92461 v 7.20098 h 1.633492 v -7.20098 z m -29.96664457,0.31005 v 1.33271 H 2.1857675 v 5.55822 h 1.742527 v -5.55822 h 2.109433 v -1.33271 z m 26.31880757,1.53167 c -0.898327,0 -1.605653,0.25155 -2.122869,0.75445 -0.514194,0.49982 -0.77153,1.17831 -0.77153,2.03602 0,0.86696 0.27205,1.53501 0.816488,2.00397 0.544439,0.46897 1.32791,0.70331 2.350244,0.70331 0.396232,0 0.758026,-0.0339 1.084688,-0.1018 0.326665,-0.0679 0.674338,-0.17696 1.043348,-0.32814 v -1.33788 h -0.181386 c -0.187528,0.14501 -0.443237,0.28071 -0.766876,0.4072 -0.323641,0.1265 -0.657712,0.19017 -1.002525,0.19017 -0.544438,0 -0.957389,-0.10804 -1.238683,-0.324 -0.278265,-0.21597 -0.42952,-0.52755 -0.453719,-0.93482 h 3.738275 v -0.58341 c 0,-0.80217 -0.2084,-1.41594 -0.625804,-1.84171 -0.417404,-0.42887 -1.040897,-0.64336 -1.869651,-0.64336 z m -12.698968,0.0139 c -0.390181,0 -0.780291,0.0324 -1.170472,0.0971 -0.387157,0.0617 -0.666819,0.11545 -0.839224,0.16173 v 1.25417 h 0.14986 c 0.133086,-0.0524 0.352351,-0.12604 0.657842,-0.22169 0.305493,-0.0987 0.59277,-0.1483 0.861962,-0.1483 0.447651,0 0.786085,0.0553 1.01596,0.16639 0.229873,0.10798 0.345199,0.30579 0.345199,0.59272 v 0.0274 c -0.480922,0.0278 -0.945546,0.0711 -1.393197,0.1297 -0.447649,0.0586 -0.822529,0.15727 -1.124996,0.29611 -0.30549,0.13883 -0.541612,0.32881 -0.707966,0.56946 -0.166357,0.24065 -0.249082,0.55067 -0.249082,0.93016 0,0.47513 0.16323,0.86552 0.489892,1.17097 0.326665,0.30544 0.732002,0.45784 1.215948,0.45784 0.205677,0 0.394484,-0.0183 0.566889,-0.0553 0.172408,-0.0339 0.338889,-0.0877 0.499194,-0.16175 0.114938,-0.0555 0.237361,-0.1312 0.367419,-0.22685 0.130062,-0.0956 0.238882,-0.17758 0.326597,-0.24546 v 0.55086 h 1.619538 v -3.53564 c 0,-0.62322 -0.206772,-1.0799 -0.621149,-1.36991 -0.411356,-0.29311 -1.081643,-0.43976 -2.010214,-0.43976 z m 21.80487,0.005 c -0.804561,0 -1.439513,0.16648 -1.905309,0.4997 -0.462775,0.33012 -0.694531,0.74504 -0.694531,1.24486 0,0.38875 0.112072,0.71441 0.335896,0.97667 0.223824,0.25916 0.567137,0.45018 1.029912,0.5736 0.169381,0.0463 0.357079,0.0865 0.562755,0.1204 0.208704,0.0309 0.373558,0.0601 0.494544,0.0879 0.254071,0.0524 0.426542,0.10829 0.517281,0.16691 0.09074,0.0555 0.135909,0.14636 0.135909,0.27285 0,0.14192 -0.07725,0.24996 -0.231511,0.32401 -0.154257,0.071 -0.391485,0.10645 -0.712099,0.10645 -0.244999,0 -0.475131,-0.0245 -0.689883,-0.0739 -0.214749,-0.0524 -0.40681,-0.11404 -0.576191,-0.185 -0.196604,-0.0802 -0.348967,-0.15432 -0.457853,-0.2222 -0.105865,-0.071 -0.199972,-0.13568 -0.281636,-0.1943 h -0.149863 v 1.3694 c 0.223825,0.1049 0.520343,0.20092 0.889352,0.28731 0.369009,0.0864 0.780333,0.12919 1.234033,0.12919 0.819684,0 1.465502,-0.16336 1.93735,-0.49039 0.471847,-0.33014 0.707967,-0.76332 0.707967,-1.30017 0,-0.36714 -0.102832,-0.67298 -0.308509,-0.91671 -0.205677,-0.24683 -0.523411,-0.42689 -0.952913,-0.54105 -0.193578,-0.0494 -0.387265,-0.0896 -0.580843,-0.1204 -0.190555,-0.0339 -0.369011,-0.0679 -0.535368,-0.1018 -0.302466,-0.0648 -0.494525,-0.13003 -0.576191,-0.19482 -0.08167,-0.0648 -0.122473,-0.15873 -0.122473,-0.28215 0,-0.13575 0.08923,-0.24066 0.267681,-0.3147 0.181481,-0.074 0.403998,-0.1111 0.667145,-0.1111 0.31759,0 0.630445,0.0543 0.93896,0.16225 0.311541,0.1049 0.588468,0.24217 0.83044,0.41186 h 0.14056 v -1.31462 c -0.196603,-0.0895 -0.470277,-0.17247 -0.821138,-0.2496 -0.347836,-0.0802 -0.712365,-0.1204 -1.093474,-0.1204 z m -25.198461,0.12504 c -0.223824,0 -0.4686695,0.0522 -0.7348375,0.1571 -0.266171,0.10182 -0.579546,0.31006 -0.93948,0.62476 v -0.76325 h -1.632974 v 5.19701 h 1.632974 v -3.48035 c 0.205679,-0.074 0.397738,-0.12624 0.576194,-0.15709 0.178456,-0.0309 0.384117,-0.0465 0.617016,-0.0465 0.102839,0 0.2317665,0.006 0.3860215,0.0186 0.15426,0.0123 0.265814,0.0306 0.335381,0.0553 h 0.145211 v -1.58696 c -0.05444,-0.006 -0.117578,-0.0108 -0.190169,-0.014 -0.07259,-0.003 -0.137864,-0.005 -0.195337,-0.005 z m 6.891568,0.0186 1.951302,5.19701 h 1.851051 l 1.964222,-5.19701 h -1.692405 l -1.16582,3.57234 -1.179772,-3.57234 z m 9.069731,0.87901 c 0.338762,0 0.587968,0.0882 0.748276,0.26406 0.160306,0.17586 0.245174,0.43787 0.254246,0.7865 h -2.118733 c 0.0242,-0.36714 0.13738,-0.63385 0.340032,-0.80046 0.202652,-0.16659 0.461613,-0.2501 0.776179,-0.2501 z m -11.555883,1.87893 v 1.08311 c -0.127035,0.11107 -0.275037,0.20032 -0.444418,0.26819 -0.166354,0.0679 -0.331211,0.10181 -0.494544,0.10181 -0.205676,0 -0.35693,-0.0136 -0.453718,-0.0413 -0.09679,-0.0309 -0.18003,-0.0773 -0.249597,-0.13902 -0.07259,-0.0617 -0.117755,-0.12641 -0.135909,-0.19429 -0.01815,-0.0679 -0.02739,-0.15608 -0.02739,-0.26407 0,-0.16352 0.04243,-0.29451 0.127124,-0.39324 0.08772,-0.10182 0.212873,-0.17906 0.376203,-0.23151 0.133086,-0.0432 0.328398,-0.0802 0.585497,-0.11111 0.257095,-0.0339 0.495951,-0.06 0.716751,-0.0785 z"
       id="path821"
       inkscape:connector-curvature="0" />
  </g>
</svg>
